<svg width="154" height="40" viewBox="0 0 154 40" fill="none" xmlns="http://www.w3.org/2000/svg">
<path fill-rule="evenodd" clip-rule="evenodd" d="M25.5922 21.2715C25.5711 22.2901 24.7 23.105 23.6252 23.105C22.5574 23.105 21.6863 22.2901 21.6653 21.2715V3.28767C21.6653 2.25501 22.5434 1.41904 23.6252 1.41904C24.7141 1.41904 25.5922 2.25501 25.5922 3.28767V21.2715ZM57.6751 19.3607H66.0348H66.0699C67.1517 19.3607 68.0299 20.2037 68.0299 21.2364C68.0299 22.2691 67.1517 23.105 66.0699 23.105H55.7292H55.7151C54.6403 23.105 53.7692 22.2901 53.7482 21.2715V3.28767C53.7482 2.25501 54.6263 1.41904 55.7151 1.41904C56.797 1.41904 57.6751 2.25501 57.6751 3.28767V19.3607ZM34.1697 16.9301C33.4039 16.9301 32.2097 17.9838 32.2097 18.8058C32.2097 19.6207 32.5047 19.9438 32.9684 20.281V20.288L33.713 20.7938L34.1275 21.0467L34.563 21.2996L35.0056 21.5455L35.4693 21.7773L35.9399 22.0021L36.4247 22.2129L36.9164 22.4025L37.4222 22.5782L37.942 22.7327L38.4689 22.8662L39.0028 22.9786L39.5437 23.0629L40.0917 23.112L40.6326 23.1331L41.2508 23.1261L41.876 23.091L42.5153 23.0348L43.1686 22.9434L43.836 22.81L44.5104 22.6273L45.1918 22.3885L45.8591 22.0653L46.5054 21.6719L47.1096 21.1802L47.6575 20.5971L48.1282 19.9157L48.5005 19.164L48.7675 18.3351L48.929 17.4499L49.0274 16.5789L48.9852 15.8342L48.9361 15.0193L48.7815 14.2325L48.5286 13.5019L48.1774 12.8205L47.7489 12.2093L47.2571 11.6684L46.7162 11.1907L46.1472 10.7833L45.5501 10.418L44.9389 10.1089L44.3137 9.82789L43.6884 9.58202L43.0562 9.35722L42.424 9.15349L41.7917 8.96382L41.1735 8.7882L39.9863 8.451L39.4103 8.2824L38.8764 8.12083L38.3706 7.95223L37.9069 7.78363L37.4924 7.61503L37.1342 7.43941L36.8321 7.27081L36.5933 7.10924L36.4176 6.96171L36.3052 6.82824L36.228 6.71584L36.1788 6.61047L36.1437 6.47699L36.1296 6.2803L36.1437 5.92202L36.1999 5.6059L36.2771 5.353L36.3825 5.12821L36.509 4.93853L36.6495 4.76291L36.8321 4.60134L37.0429 4.44679L37.2957 4.29926L37.5838 4.16579L37.9069 4.05339L38.2652 3.94802L38.6445 3.87074L39.052 3.80752L39.4665 3.76537L39.895 3.74429H40.2251L40.5694 3.75834L40.9136 3.77942L41.2648 3.82157L41.6161 3.87074L41.9673 3.92694L42.3116 4.00422L42.6558 4.08149L42.993 4.17281L43.3231 4.27819L43.6393 4.39059L43.9484 4.51001L44.2434 4.62943L44.5244 4.76291L44.7843 4.89638C45.0653 5.04391 45.3955 5.13523 45.7397 5.13523C46.8216 5.13523 47.6997 4.29224 47.6997 3.25957C47.6997 2.5641 47.3063 1.95996 46.7232 1.63681L46.3228 1.42606L45.9083 1.23639L45.4798 1.05374L45.0443 0.885142L44.5947 0.737619L44.1451 0.590095L43.6814 0.463646L43.2107 0.351247L42.7331 0.252898L42.2483 0.168599L41.7636 0.105374L41.2789 0.0491746L40.7801 0.0140499L40.2884 0H39.7896L39.1714 0.0280998L38.5392 0.0913242L37.9139 0.182648L37.2817 0.323147L36.6495 0.498771L36.0313 0.723569L35.4271 0.997541L34.837 1.34176L34.2821 1.74218L33.7622 2.21286L33.2986 2.7608L32.8981 3.37197L32.589 4.04636L32.3642 4.76993L32.2308 5.53565L32.1886 6.35054L32.2589 7.08816L32.4415 7.81173L32.7506 8.48613L33.144 9.08325L33.6147 9.59607L34.1345 10.0386L34.6825 10.411L35.2515 10.7341L35.8346 11.0081L36.4247 11.254L37.0218 11.4717L37.6329 11.6754L38.2441 11.8581L38.8553 12.0407L39.4594 12.2093L40.0565 12.3779L40.6326 12.5465L41.2016 12.7151L41.7425 12.8908L42.2554 13.0734L42.7331 13.2561L43.1686 13.4528L43.562 13.6565L43.9062 13.8602L44.1942 14.071L44.4331 14.2817L44.6228 14.4924L44.7703 14.7032L44.8827 14.921L44.974 15.1739L45.0302 15.4689L45.0513 15.8342L45.1075 16.3611L45.0232 17.0285L44.9389 17.464L44.8335 17.8012L44.693 18.0752L44.5455 18.3L44.3628 18.4896L44.1591 18.6582L43.9132 18.8058L43.6182 18.9463L43.281 19.0657L42.9016 19.1711L42.4872 19.2554L42.0516 19.3116L41.588 19.3537L41.1243 19.3748L40.6747 19.3818L40.3586 19.3748L40.0495 19.3467L39.7194 19.2975L39.3892 19.2273L39.045 19.1359L38.6937 19.0306L38.3354 18.9111L37.9772 18.7706L37.6189 18.6091L37.2606 18.4475L36.9094 18.2648L36.5652 18.0822L36.228 17.8855L35.9048 17.6818L35.3569 17.3094C35.0267 17.0706 34.9354 16.9301 34.1697 16.9301ZM77.7453 1.60169C78.0053 1.48226 78.2933 1.41904 78.5954 1.41904C79.6772 1.41904 80.5553 2.25501 80.5553 3.28767C80.5553 4.10959 80.0074 4.80506 79.2487 5.05796C77.8999 5.73235 76.9726 7.08114 76.9726 8.62663V15.9396C76.9726 17.4991 77.928 18.869 79.2979 19.5364C80.0355 19.8033 80.752 20.7657 80.4781 21.7071C80.1971 22.6484 79.2908 23.1542 78.5954 23.1542C77.8999 23.1542 78.0053 23.091 77.7453 22.9715V22.9786C74.9775 21.7281 73.0457 19.0376 73.0457 15.9396V8.62663C73.0457 5.52863 74.9775 2.83808 77.7453 1.58764V1.60169ZM84.8967 22.8662C87.5311 21.5736 89.3505 18.9463 89.3505 15.9396V8.62663C89.3505 5.61293 87.5241 2.97857 84.8757 1.69301L84.8686 1.70004C84.5666 1.51739 84.2153 1.41904 83.836 1.41904C82.7541 1.41904 81.869 2.25501 81.869 3.28767C81.869 4.03231 82.3256 4.67158 82.9789 4.97366H82.9719C84.419 5.61995 85.4236 7.01791 85.4236 8.62663V15.9396C85.4236 17.5483 84.412 18.9463 82.9719 19.5926L82.9789 19.5996C82.3256 19.9017 81.7917 20.4988 81.9533 21.4682C82.1219 22.4306 82.7401 22.8943 83.4215 22.9996C84.1029 23.105 84.5876 23.0488 84.8967 22.8662ZM98.6937 21.2715C98.6726 22.2901 97.8016 23.105 96.7267 23.105C95.6589 23.105 94.7878 22.2901 94.7668 21.2715V3.3228V3.28767C94.7668 2.25501 95.6449 1.41904 96.7267 1.41904C97.8156 1.41904 98.6937 2.25501 98.6937 3.28767V3.3228V21.2715ZM140.878 21.2715C140.857 22.2901 139.986 23.105 138.911 23.105C137.844 23.105 136.973 22.2901 136.952 21.2715V3.28767C136.952 2.25501 137.83 1.41904 138.911 1.41904C140 1.41904 140.878 2.25501 140.878 3.28767V21.2715ZM110.685 20.4707C111.121 21.398 110.692 22.4939 109.73 22.9294C108.76 23.3649 107.601 22.9786 107.131 22.0653L107.117 22.0302L102.733 13.1577H101.925C100.864 13.1296 100.014 12.3007 100.014 11.2821C100.014 10.2634 100.864 9.44152 101.925 9.41342V9.40639H104.967C106.175 9.40639 107.173 8.46505 107.173 7.30594C107.173 6.14682 106.175 5.19845 104.967 5.19845H101.925C100.864 5.17035 100.014 4.34141 100.014 3.3228C100.014 2.30418 100.864 1.47524 101.925 1.45416V1.44714H104.967C108.339 1.44714 111.1 4.08149 111.1 7.30594C111.1 9.87004 109.344 12.0688 106.92 12.8486L110.664 20.4355L110.685 20.4707ZM120.619 26.3927C120.633 25.5919 121.321 24.9456 122.164 24.9456C123.014 24.9456 123.702 25.5919 123.724 26.3927V32.3007C123.731 32.9118 123.33 33.4387 122.775 33.6635H122.768L122.74 33.6776H122.733L122.698 33.6916L122.663 33.6986L122.628 33.7127C122.48 33.7548 122.326 33.7829 122.164 33.7829H110.215C109.379 33.7619 108.697 33.1085 108.697 32.3007C108.697 31.4928 109.379 30.8325 110.215 30.8184H120.612V26.3927H120.619ZM82.0235 26.3927C82.0095 25.5919 81.321 24.9456 80.4781 24.9456C79.628 24.9456 78.9396 25.5919 78.9255 26.3927V32.3007C78.9115 32.8978 79.2908 33.4176 79.8318 33.6495H79.8388L79.8669 33.6635H79.8739L79.909 33.6776L79.9371 33.6916H79.9442L79.9793 33.6986C80.1338 33.7548 80.3024 33.7829 80.4781 33.7829H92.4275C93.2705 33.7619 93.9449 33.1085 93.9449 32.3007C93.9449 31.4928 93.2705 30.8325 92.4275 30.8184H82.0306V26.3927H82.0235ZM144.054 5.19845H147.096C148.269 5.19845 149.231 6.07657 149.301 7.17949V7.30594V17.2392C149.301 18.3983 148.304 19.3467 147.096 19.3467H144.054C143 19.3748 142.15 20.2037 142.15 21.2153C142.15 22.2339 143 23.0629 144.054 23.091H147.096C150.418 23.091 153.151 20.5269 153.228 17.3727V17.3235V6.99684V6.96874C153.228 6.81419 153.207 6.65964 153.172 6.51914C152.772 3.66702 150.187 1.44714 147.096 1.44714H144.054V1.45416C143 1.48226 142.15 2.30418 142.15 3.3228C142.15 4.34141 143 5.17035 144.054 5.19845ZM119.923 1.60169C120.183 1.48226 120.464 1.41904 120.773 1.41904C121.855 1.41904 122.733 2.25501 122.733 3.28767C122.733 4.10959 122.192 4.80506 121.426 5.05796C120.078 5.73235 119.157 7.08114 119.157 8.62663V15.9396C119.157 17.4991 120.106 18.869 121.483 19.5364C122.213 19.8033 122.733 20.3653 122.733 21.2856C122.733 22.1988 121.469 23.1542 120.773 23.1542C120.078 23.1542 120.183 23.091 119.923 22.9715V22.9786C117.155 21.7281 115.223 19.0376 115.223 15.9396V8.62663C115.223 5.52863 117.155 2.83808 119.923 1.58764V1.60169ZM127.067 22.8662C129.709 21.5736 131.528 18.9463 131.528 15.9396V8.62663C131.528 5.61293 129.702 2.97857 127.053 1.69301L127.046 1.70004C126.751 1.51739 126.393 1.41904 126.014 1.41904C124.932 1.41904 124.047 2.25501 124.047 3.28767C124.047 4.03231 124.503 4.67158 125.157 4.97366H125.15C126.597 5.61995 127.601 7.01791 127.601 8.62663V15.9396C127.601 17.5483 126.59 18.9463 125.15 19.5926L125.157 19.5996C124.503 19.9017 124.047 20.3934 124.047 21.2856C124.047 22.1707 125.276 23.1542 126.014 23.1542C126.751 23.1542 126.765 23.0488 127.067 22.8662ZM106.365 37.3727H97.654V35.5321C98.3916 34.9701 99.052 34.4433 99.6421 33.9515C100.225 33.4598 100.745 32.9891 101.188 32.5395C101.771 31.9564 102.192 31.4436 102.445 31.0081C102.712 30.5655 102.838 30.1159 102.838 29.6452C102.838 29.1184 102.677 28.7179 102.347 28.437C102.017 28.156 101.553 28.0155 100.963 28.0155C100.668 28.0155 100.38 28.0506 100.113 28.1208C99.8388 28.1911 99.5718 28.2824 99.2908 28.3948C99.0239 28.5142 98.7921 28.6336 98.6024 28.7531C98.4127 28.8725 98.2652 28.9638 98.1668 29.027H97.942V26.5543C98.2722 26.4067 98.7991 26.2452 99.5086 26.0906C100.218 25.929 100.907 25.8518 101.56 25.8518C102.965 25.8518 104.033 26.1468 104.756 26.7439C105.487 27.3411 105.845 28.1841 105.845 29.2659C105.845 29.9333 105.684 30.5866 105.353 31.2329C105.023 31.8721 104.475 32.5536 103.717 33.2912C103.239 33.7408 102.775 34.1412 102.319 34.4925C101.869 34.8437 101.539 35.0966 101.342 35.2441H106.365V37.3727ZM4.31366 21.2715C4.29258 22.2901 3.42149 23.105 2.3537 23.105C1.27889 23.105 0.407794 22.2901 0.386719 21.2715V3.28767C0.386719 2.25501 1.27186 1.41904 2.3537 1.41904C3.43554 1.41904 4.31366 2.25501 4.31366 3.28767V3.3228V9.93326L14.1556 1.88971L14.1767 1.86863C14.9986 1.19424 16.242 1.28556 16.9445 2.06533C17.654 2.85915 17.5557 4.03934 16.7338 4.71373L16.7057 4.73481L8.86582 11.1486L16.804 19.993L16.8251 20.014C17.5346 20.8008 17.4362 21.981 16.6143 22.6554C15.7924 23.3298 14.549 23.2385 13.8465 22.4517L13.8254 22.4306L5.88022 13.5933L4.31366 14.8718V21.2715Z" fill="#0061A8"/>
<path d="M24.222 34.9702C23.8075 34.9702 23.4703 34.64 23.4703 34.2326C23.4703 33.8252 23.8075 33.488 24.222 33.488C24.6435 33.488 24.9807 33.8252 24.9807 34.2326C24.9807 34.64 24.6435 34.9702 24.222 34.9702ZM17.3586 34.9702C16.9442 34.9702 16.607 34.64 16.607 34.2326C16.607 33.8252 16.9442 33.488 17.3586 33.488C17.7731 33.488 18.1173 33.8252 18.1173 34.2326C18.1173 34.64 17.7731 34.9702 17.3586 34.9702ZM24.222 33.2772C23.8075 33.2772 23.4703 32.94 23.4703 32.5326C23.4703 32.1251 23.8075 31.7949 24.222 31.7949C24.6435 31.7949 24.9807 32.1251 24.9807 32.5326C24.9807 32.94 24.6435 33.2772 24.222 33.2772ZM17.3586 33.2772C16.9442 33.2772 16.607 32.94 16.607 32.5326C16.607 32.1251 16.9442 31.7949 17.3586 31.7949C17.7731 31.7949 18.1173 32.1251 18.1173 32.5326C18.1173 32.94 17.7731 33.2772 17.3586 33.2772ZM24.222 31.5982C23.8075 31.5982 23.4703 31.2681 23.4703 30.8536C23.4703 30.4462 23.8075 30.116 24.222 30.116C24.6435 30.116 24.9807 30.4462 24.9807 30.8536C24.9807 31.2681 24.6435 31.5982 24.222 31.5982ZM17.3586 31.5982C16.9442 31.5982 16.607 31.2681 16.607 30.8536C16.607 30.4462 16.9442 30.116 17.3586 30.116C17.7731 30.116 18.1173 30.4462 18.1173 30.8536C18.1173 31.2681 17.7731 31.5982 17.3586 31.5982ZM22.5079 29.9193C22.0934 29.9193 21.7562 29.5891 21.7562 29.1817C21.7562 28.7742 22.0934 28.437 22.5079 28.437C22.9294 28.437 23.2666 28.7742 23.2666 29.1817C23.2666 29.5891 22.9294 29.9193 22.5079 29.9193ZM20.7938 29.9193C20.3793 29.9193 20.0351 29.5891 20.0351 29.1817C20.0351 28.7742 20.3793 28.437 20.7938 28.437C21.2083 28.437 21.5455 28.7742 21.5455 29.1817C21.5455 29.5891 21.2083 29.9193 20.7938 29.9193ZM19.0797 29.9193C18.6582 29.9193 18.321 29.5891 18.321 29.1817C18.321 28.7742 18.6582 28.437 19.0797 28.437C19.4942 28.437 19.8314 28.7742 19.8314 29.1817C19.8314 29.5891 19.4942 29.9193 19.0797 29.9193ZM22.5079 36.6492C22.0934 36.6492 21.7562 36.319 21.7562 35.9116C21.7562 35.4971 22.0934 35.1669 22.5079 35.1669C22.9294 35.1669 23.2666 35.4971 23.2666 35.9116C23.2666 36.319 22.9294 36.6492 22.5079 36.6492ZM20.7938 36.6492C20.3793 36.6492 20.0351 36.319 20.0351 35.9116C20.0351 35.4971 20.3793 35.1669 20.7938 35.1669C21.2083 35.1669 21.5455 35.4971 21.5455 35.9116C21.5455 36.319 21.2083 36.6492 20.7938 36.6492ZM19.0797 36.6492C18.6582 36.6492 18.321 36.319 18.321 35.9116C18.321 35.4971 18.6582 35.1669 19.0797 35.1669C19.4942 35.1669 19.8314 35.4971 19.8314 35.9116C19.8314 36.319 19.4942 36.6492 19.0797 36.6492ZM17.3586 36.6492C16.9442 36.6492 16.607 36.319 16.607 35.9116C16.607 35.4971 16.9442 35.1669 17.3586 35.1669C17.7731 35.1669 18.1173 35.4971 18.1173 35.9116C18.1173 36.319 17.7731 36.6492 17.3586 36.6492ZM17.3586 38.3211C16.9442 38.3211 16.607 37.9909 16.607 37.5835C16.607 37.1761 16.9442 36.8459 17.3586 36.8459C17.7731 36.8459 18.1173 37.1761 18.1173 37.5835C18.1173 37.9909 17.7731 38.3211 17.3586 38.3211ZM17.3586 40.0001C16.9442 40.0001 16.607 39.6699 16.607 39.2625C16.607 38.848 16.9442 38.5178 17.3586 38.5178C17.7731 38.5178 18.1173 38.848 18.1173 39.2625C18.1173 39.6699 17.7731 40.0001 17.3586 40.0001ZM27.615 30.116C27.2006 30.116 26.8563 30.4462 26.8563 30.8606C26.8563 31.2681 27.2006 31.5982 27.615 31.5982C28.0295 31.5982 28.3667 31.2681 28.3667 30.8606C28.3667 30.4462 28.0295 30.116 27.615 30.116ZM27.615 31.816C27.2006 31.816 26.8563 32.1462 26.8563 32.5536C26.8563 32.9611 27.2006 33.2913 27.615 33.2913C28.0295 33.2913 28.3667 32.9611 28.3667 32.5536C28.3667 32.1462 28.0295 31.816 27.615 31.816ZM27.615 33.495C27.2006 33.495 26.8563 33.8252 26.8563 34.2326C26.8563 34.64 27.2006 34.9772 27.615 34.9772C28.0295 34.9772 28.3667 34.64 28.3667 34.2326C28.3667 33.8252 28.0295 33.495 27.615 33.495ZM27.615 35.1669C27.2006 35.1669 26.8563 35.4971 26.8563 35.9116C26.8563 36.319 27.2006 36.6492 27.615 36.6492C28.0295 36.6492 28.3667 36.319 28.3667 35.9116C28.3667 35.4971 28.0295 35.1669 27.615 35.1669ZM31.0502 28.437C30.6287 28.437 30.2915 28.7742 30.2915 29.1817C30.2915 29.5891 30.6287 29.9193 31.0502 29.9193C31.4647 29.9193 31.8019 29.5891 31.8019 29.1817C31.8019 28.7742 31.4647 28.437 31.0502 28.437ZM29.3291 28.437C28.9146 28.437 28.5774 28.7742 28.5774 29.1817C28.5774 29.5891 28.9146 29.9193 29.3291 29.9193C29.7506 29.9193 30.0878 29.5891 30.0878 29.1817C30.0878 28.7742 29.7506 28.437 29.3291 28.437ZM41.2926 30.116C40.8781 30.116 40.5339 30.4462 40.5339 30.8606C40.5339 31.2681 40.8781 31.5982 41.2926 31.5982C41.7071 31.5982 42.0443 31.2681 42.0443 30.8606C42.0443 30.4462 41.7071 30.116 41.2926 30.116ZM41.2926 31.816C40.8781 31.816 40.5339 32.1462 40.5339 32.5536C40.5339 32.9611 40.8781 33.2913 41.2926 33.2913C41.7071 33.2913 42.0443 32.9611 42.0443 32.5536C42.0443 32.1462 41.7071 31.816 41.2926 31.816ZM39.5785 31.816C39.157 31.816 38.8198 32.1462 38.8198 32.5536C38.8198 32.9611 39.157 33.2913 39.5785 33.2913C39.993 33.2913 40.3302 32.9611 40.3302 32.5536C40.3302 32.1462 39.993 31.816 39.5785 31.816ZM37.8574 31.816C37.4429 31.816 37.1057 32.1462 37.1057 32.5536C37.1057 32.9611 37.4429 33.2913 37.8574 33.2913C38.2789 33.2913 38.6161 32.9611 38.6161 32.5536C38.6161 32.1462 38.2789 31.816 37.8574 31.816ZM36.1433 31.816C35.7288 31.816 35.3916 32.1462 35.3916 32.5536C35.3916 32.9611 35.7288 33.2913 36.1433 33.2913C36.5578 33.2913 36.895 32.9611 36.895 32.5536C36.895 32.1462 36.5578 31.816 36.1433 31.816ZM41.2926 33.495C40.8781 33.495 40.5339 33.8252 40.5339 34.2326C40.5339 34.64 40.8781 34.9772 41.2926 34.9772C41.7071 34.9772 42.0443 34.64 42.0443 34.2326C42.0443 33.8252 41.7071 33.495 41.2926 33.495ZM34.4292 33.495C34.0077 33.495 33.6705 33.8252 33.6705 34.2326C33.6705 34.64 34.0077 34.9772 34.4292 34.9772C34.8437 34.9772 35.1809 34.64 35.1809 34.2326C35.1809 33.8252 34.8437 33.495 34.4292 33.495ZM39.5785 35.1669C39.157 35.1669 38.8198 35.4971 38.8198 35.9116C38.8198 36.319 39.157 36.6492 39.5785 36.6492C39.993 36.6492 40.3302 36.319 40.3302 35.9116C40.3302 35.4971 39.993 35.1669 39.5785 35.1669ZM37.8574 35.1669C37.4429 35.1669 37.1057 35.4971 37.1057 35.9116C37.1057 36.319 37.4429 36.6492 37.8574 36.6492C38.2789 36.6492 38.6161 36.319 38.6161 35.9116C38.6161 35.4971 38.2789 35.1669 37.8574 35.1669ZM36.1433 35.1669C35.7288 35.1669 35.3916 35.4971 35.3916 35.9116C35.3916 36.319 35.7288 36.6492 36.1433 36.6492C36.5578 36.6492 36.895 36.319 36.895 35.9116C36.895 35.4971 36.5578 35.1669 36.1433 35.1669ZM39.5785 28.437C39.157 28.437 38.8198 28.7742 38.8198 29.1817C38.8198 29.5891 39.157 29.9193 39.5785 29.9193C39.993 29.9193 40.3302 29.5891 40.3302 29.1817C40.3302 28.7742 39.993 28.437 39.5785 28.437ZM37.8574 28.437C37.4429 28.437 37.1057 28.7742 37.1057 29.1817C37.1057 29.5891 37.4429 29.9193 37.8574 29.9193C38.2789 29.9193 38.6161 29.5891 38.6161 29.1817C38.6161 28.7742 38.2789 28.437 37.8574 28.437ZM36.1433 28.437C35.7288 28.437 35.3916 28.7742 35.3916 29.1817C35.3916 29.5891 35.7288 29.9193 36.1433 29.9193C36.5578 29.9193 36.895 29.5891 36.895 29.1817C36.895 28.7742 36.5578 28.437 36.1433 28.437ZM51.6052 30.116C51.1907 30.116 50.8465 30.4462 50.8465 30.8606C50.8465 31.2681 51.1907 31.5982 51.6052 31.5982C52.0197 31.5982 52.3569 31.2681 52.3569 30.8606C52.3569 30.4462 52.0197 30.116 51.6052 30.116ZM44.7418 30.116C44.3203 30.116 43.9831 30.4462 43.9831 30.8606C43.9831 31.2681 44.3203 31.5982 44.7418 31.5982C45.1563 31.5982 45.4935 31.2681 45.4935 30.8606C45.4935 30.4462 45.1563 30.116 44.7418 30.116ZM51.6052 31.816C51.1907 31.816 50.8465 32.1462 50.8465 32.5536C50.8465 32.9611 51.1907 33.2913 51.6052 33.2913C52.0197 33.2913 52.3569 32.9611 52.3569 32.5536C52.3569 32.1462 52.0197 31.816 51.6052 31.816ZM44.7418 31.816C44.3203 31.816 43.9831 32.1462 43.9831 32.5536C43.9831 32.9611 44.3203 33.2913 44.7418 33.2913C45.1563 33.2913 45.4935 32.9611 45.4935 32.5536C45.4935 32.1462 45.1563 31.816 44.7418 31.816ZM51.6052 33.495C51.1907 33.495 50.8465 33.8252 50.8465 34.2326C50.8465 34.64 51.1907 34.9772 51.6052 34.9772C52.0197 34.9772 52.3569 34.64 52.3569 34.2326C52.3569 33.8252 52.0197 33.495 51.6052 33.495ZM44.7418 33.495C44.3203 33.495 43.9831 33.8252 43.9831 34.2326C43.9831 34.64 44.3203 34.9772 44.7418 34.9772C45.1563 34.9772 45.4935 34.64 45.4935 34.2326C45.4935 33.8252 45.1563 33.495 44.7418 33.495ZM51.6052 35.1669C51.1907 35.1669 50.8465 35.4971 50.8465 35.9116C50.8465 36.319 51.1907 36.6492 51.6052 36.6492C52.0197 36.6492 52.3569 36.319 52.3569 35.9116C52.3569 35.4971 52.0197 35.1669 51.6052 35.1669ZM44.7418 35.1669C44.3203 35.1669 43.9831 35.4971 43.9831 35.9116C43.9831 36.319 44.3203 36.6492 44.7418 36.6492C45.1563 36.6492 45.4935 36.319 45.4935 35.9116C45.4935 35.4971 45.1563 35.1669 44.7418 35.1669ZM49.8911 28.437C49.4696 28.437 49.1324 28.7742 49.1324 29.1817C49.1324 29.5891 49.4696 29.9193 49.8911 29.9193C50.3056 29.9193 50.6428 29.5891 50.6428 29.1817C50.6428 28.7742 50.3056 28.437 49.8911 28.437ZM48.17 28.437C47.7555 28.437 47.4183 28.7742 47.4183 29.1817C47.4183 29.5891 47.7555 29.9193 48.17 29.9193C48.5915 29.9193 48.9287 29.5891 48.9287 29.1817C48.9287 28.7742 48.5915 28.437 48.17 28.437ZM46.4559 28.437C46.0344 28.437 45.6972 28.7742 45.6972 29.1817C45.6972 29.5891 46.0344 29.9193 46.4559 29.9193C46.8704 29.9193 47.2076 29.5891 47.2076 29.1817C47.2076 28.7742 46.8704 28.437 46.4559 28.437ZM44.7418 28.437C44.3203 28.437 43.9831 28.7742 43.9831 29.1817C43.9831 29.5891 44.3203 29.9193 44.7418 29.9193C45.1563 29.9193 45.4935 29.5891 45.4935 29.1817C45.4935 28.7742 45.1563 28.437 44.7418 28.437ZM61.9108 30.116C61.4893 30.116 61.1521 30.4462 61.1521 30.8606C61.1521 31.2681 61.4893 31.5982 61.9108 31.5982C62.3253 31.5982 62.6625 31.2681 62.6625 30.8606C62.6625 30.4462 62.3253 30.116 61.9108 30.116ZM61.9108 31.816C61.4893 31.816 61.1521 32.1462 61.1521 32.5536C61.1521 32.9611 61.4893 33.2913 61.9108 33.2913C62.3253 33.2913 62.6625 32.9611 62.6625 32.5536C62.6625 32.1462 62.3253 31.816 61.9108 31.816ZM60.1897 31.816C59.7752 31.816 59.438 32.1462 59.438 32.5536C59.438 32.9611 59.7752 33.2913 60.1897 33.2913C60.6112 33.2913 60.9484 32.9611 60.9484 32.5536C60.9484 32.1462 60.6112 31.816 60.1897 31.816ZM58.4756 31.816C58.0611 31.816 57.7239 32.1462 57.7239 32.5536C57.7239 32.9611 58.0611 33.2913 58.4756 33.2913C58.8901 33.2913 59.2343 32.9611 59.2343 32.5536C59.2343 32.1462 58.8901 31.816 58.4756 31.816ZM56.7615 31.816C56.34 31.816 56.0028 32.1462 56.0028 32.5536C56.0028 32.9611 56.34 33.2913 56.7615 33.2913C57.176 33.2913 57.5132 32.9611 57.5132 32.5536C57.5132 32.1462 57.176 31.816 56.7615 31.816ZM61.9108 33.495C61.4893 33.495 61.1521 33.8252 61.1521 34.2326C61.1521 34.64 61.4893 34.9772 61.9108 34.9772C62.3253 34.9772 62.6625 34.64 62.6625 34.2326C62.6625 33.8252 62.3253 33.495 61.9108 33.495ZM55.0404 33.495C54.6259 33.495 54.2887 33.8252 54.2887 34.2326C54.2887 34.64 54.6259 34.9772 55.0404 34.9772C55.4619 34.9772 55.7991 34.64 55.7991 34.2326C55.7991 33.8252 55.4619 33.495 55.0404 33.495ZM60.1897 35.1669C59.7752 35.1669 59.438 35.4971 59.438 35.9116C59.438 36.319 59.7752 36.6492 60.1897 36.6492C60.6112 36.6492 60.9484 36.319 60.9484 35.9116C60.9484 35.4971 60.6112 35.1669 60.1897 35.1669ZM58.4756 35.1669C58.0611 35.1669 57.7239 35.4971 57.7239 35.9116C57.7239 36.319 58.0611 36.6492 58.4756 36.6492C58.8901 36.6492 59.2343 36.319 59.2343 35.9116C59.2343 35.4971 58.8901 35.1669 58.4756 35.1669ZM56.7615 35.1669C56.34 35.1669 56.0028 35.4971 56.0028 35.9116C56.0028 36.319 56.34 36.6492 56.7615 36.6492C57.176 36.6492 57.5132 36.319 57.5132 35.9116C57.5132 35.4971 57.176 35.1669 56.7615 35.1669ZM60.1897 28.437C59.7752 28.437 59.438 28.7742 59.438 29.1817C59.438 29.5891 59.7752 29.9193 60.1897 29.9193C60.6112 29.9193 60.9484 29.5891 60.9484 29.1817C60.9484 28.7742 60.6112 28.437 60.1897 28.437ZM58.4756 28.437C58.0611 28.437 57.7239 28.7742 57.7239 29.1817C57.7239 29.5891 58.0611 29.9193 58.4756 29.9193C58.8901 29.9193 59.2343 29.5891 59.2343 29.1817C59.2343 28.7742 58.8901 28.437 58.4756 28.437ZM56.7615 28.437C56.34 28.437 56.0028 28.7742 56.0028 29.1817C56.0028 29.5891 56.34 29.9193 56.7615 29.9193C57.176 29.9193 57.5132 29.5891 57.5132 29.1817C57.5132 28.7742 57.176 28.437 56.7615 28.437ZM5.38813 27.4746C2.40955 27.4746 0 29.842 0 32.7644C0 35.6797 2.40955 38.0471 5.38813 38.0471C8.3667 38.0471 10.7763 35.6797 10.7763 32.7644C10.7763 29.842 8.3667 27.4746 5.38813 27.4746Z" fill="#0061A8"/>
</svg>
