<svg width="122" height="32" viewBox="0 0 122 32" fill="none" xmlns="http://www.w3.org/2000/svg">
<path fill-rule="evenodd" clip-rule="evenodd" d="M20.3762 16.9364C20.3594 17.7474 19.6659 18.3962 18.8101 18.3962C17.9599 18.3962 17.2664 17.7474 17.2496 16.9364V2.61764C17.2496 1.79543 17.9487 1.12984 18.8101 1.12984C19.677 1.12984 20.3762 1.79543 20.3762 2.61764V16.9364ZM45.9206 15.415H52.5766H52.6045C53.4659 15.415 54.165 16.0862 54.165 16.9084C54.165 17.7306 53.4659 18.3962 52.6045 18.3962H44.3713H44.3601C43.5043 18.3962 42.8107 17.7474 42.794 16.9364V2.61764C42.794 1.79543 43.4931 1.12984 44.3601 1.12984C45.2214 1.12984 45.9206 1.79543 45.9206 2.61764V15.415ZM27.2056 13.4797C26.5959 13.4797 25.645 14.3187 25.645 14.9731C25.645 15.622 25.88 15.8792 26.2491 16.1477V16.1533L26.842 16.556L27.172 16.7574L27.5188 16.9587L27.8712 17.1545L28.2403 17.3391L28.6151 17.5181L29.001 17.6859L29.3925 17.8369L29.7952 17.9767L30.2091 18.0998L30.6286 18.206L31.0537 18.2955L31.4844 18.3626L31.9207 18.4018L32.3514 18.4186L32.8436 18.413L33.3414 18.385L33.8503 18.3403L34.3705 18.2676L34.9019 18.1613L35.4388 18.0159L35.9814 17.8257L36.5127 17.5684L37.0273 17.2552L37.5083 16.8637L37.9446 16.3994L38.3194 15.8569L38.6158 15.2584L38.8283 14.5984L38.957 13.8936L39.0353 13.2001L39.0017 12.6072L38.9626 11.9584L38.8395 11.3319L38.6382 10.7502L38.3585 10.2077L38.0173 9.72107L37.6258 9.29039L37.1951 8.91005L36.7421 8.58564L36.2666 8.29479L35.78 8.04869L35.2822 7.82496L34.7844 7.62919L34.281 7.45021L33.7776 7.28801L33.2742 7.13699L32.782 6.99716L31.8368 6.72868L31.3781 6.59444L30.953 6.4658L30.5503 6.33156L30.1812 6.19732L29.8512 6.06308L29.5659 5.92325L29.3254 5.78901L29.1352 5.66037L28.9954 5.54291L28.9059 5.43664L28.8444 5.34715L28.8052 5.26325L28.7773 5.15698L28.7661 5.00037L28.7773 4.71511L28.822 4.46341L28.8835 4.26206L28.9674 4.08307L29.0681 3.93206L29.18 3.79222L29.3254 3.66358L29.4932 3.54053L29.6946 3.42307L29.9239 3.3168L30.1812 3.22731L30.4664 3.14341L30.7685 3.08188L31.0929 3.03154L31.4229 2.99798L31.7641 2.9812H32.0269L32.301 2.99239L32.5751 3.00917L32.8547 3.04273L33.1344 3.08188L33.4141 3.12663L33.6881 3.18815L33.9622 3.24968L34.2307 3.32239L34.4936 3.40629L34.7453 3.49578L34.9914 3.59087L35.2263 3.68595L35.45 3.79222L35.657 3.8985C35.8807 4.01595 36.1436 4.08867 36.4176 4.08867C37.279 4.08867 37.9782 3.41748 37.9782 2.59527C37.9782 2.04154 37.6649 1.56052 37.2007 1.30323L36.8819 1.13543L36.5519 0.984412L36.2107 0.838988L35.8639 0.70475L35.5059 0.587291L35.148 0.469833L34.7788 0.369155L34.4041 0.279663L34.0237 0.201357L33.6378 0.134238L33.2519 0.0838988L32.8659 0.0391528L32.4688 0.0111865L32.0773 0H31.6802L31.188 0.022373L30.6846 0.0727123L30.1868 0.145425L29.6834 0.25729L29.18 0.397121L28.6878 0.576105L28.2068 0.794242L27.7369 1.06831L27.2951 1.38713L26.8812 1.76187L26.512 2.19815L26.1932 2.68476L25.9471 3.22171L25.7681 3.79782L25.6618 4.40748L25.6283 5.0563L25.6842 5.64359L25.8296 6.2197L26.0757 6.75665L26.3889 7.23207L26.7637 7.64038L27.1776 7.99276L27.6139 8.2892L28.0669 8.54649L28.5312 8.76462L29.001 8.96039L29.4764 9.13378L29.963 9.29598L30.4496 9.44141L30.9363 9.58683L31.4173 9.72107L31.8927 9.85531L32.3514 9.98955L32.8044 10.1238L33.2351 10.2636L33.6434 10.409L34.0237 10.5545L34.3705 10.7111L34.6837 10.8733L34.9578 11.0355L35.1871 11.2033L35.3773 11.3711L35.5283 11.5389L35.6458 11.7067L35.7353 11.8801L35.808 12.0814L35.8527 12.3163L35.8695 12.6072L35.9143 13.0267L35.8471 13.558L35.78 13.9048L35.6961 14.1733L35.5843 14.3914L35.4668 14.5704L35.3214 14.7214L35.1592 14.8557L34.9634 14.9731L34.7285 15.085L34.46 15.1801L34.158 15.264L33.828 15.3311L33.4812 15.3758L33.112 15.4094L32.7429 15.4262L32.3849 15.4318L32.1332 15.4262L31.8871 15.4038L31.6242 15.3647L31.3613 15.3087L31.0873 15.236L30.8076 15.1521L30.5224 15.057L30.2371 14.9452L29.9518 14.8165L29.6666 14.6879L29.3869 14.5425L29.1129 14.397L28.8444 14.2404L28.5871 14.0782L28.1508 13.7818C27.8879 13.5916 27.8152 13.4797 27.2056 13.4797ZM61.9005 1.27526C62.1075 1.18018 62.3368 1.12984 62.5773 1.12984C63.4386 1.12984 64.1378 1.79543 64.1378 2.61764C64.1378 3.27205 63.7015 3.82578 63.0975 4.02714C62.0236 4.56409 61.2852 5.638 61.2852 6.86851V12.6911C61.2852 13.9328 62.0459 15.0235 63.1366 15.5548C63.7239 15.7674 64.2944 16.5336 64.0763 17.2831C63.8525 18.0326 63.131 18.4354 62.5773 18.4354C62.0236 18.4354 62.1075 18.385 61.9005 18.2899V18.2955C59.6968 17.2999 58.1586 15.1577 58.1586 12.6911V6.86851C58.1586 4.40189 59.6968 2.25967 61.9005 1.26407V1.27526ZM67.5944 18.206C69.6919 17.1769 71.1406 15.085 71.1406 12.6911V6.86851C71.1406 4.46901 69.6863 2.37154 67.5777 1.34797L67.5721 1.35357C67.3316 1.20814 67.0519 1.12984 66.7498 1.12984C65.8885 1.12984 65.1837 1.79543 65.1837 2.61764C65.1837 3.21053 65.5473 3.71951 66.0675 3.96002H66.0619C67.2141 4.4746 68.0139 5.58766 68.0139 6.86851V12.6911C68.0139 13.9719 67.2085 15.085 66.0619 15.5996L66.0675 15.6052C65.5473 15.8457 65.1222 16.3211 65.2509 17.093C65.3851 17.8593 65.8773 18.2284 66.4198 18.3123C66.9624 18.3962 67.3483 18.3515 67.5944 18.206ZM78.5796 16.9364C78.5628 17.7474 77.8692 18.3962 77.0135 18.3962C76.1633 18.3962 75.4697 17.7474 75.4529 16.9364V2.64561V2.61764C75.4529 1.79543 76.1521 1.12984 77.0135 1.12984C77.8804 1.12984 78.5796 1.79543 78.5796 2.61764V2.64561V16.9364ZM112.167 16.9364C112.15 17.7474 111.457 18.3962 110.601 18.3962C109.751 18.3962 109.057 17.7474 109.04 16.9364V2.61764C109.04 1.79543 109.74 1.12984 110.601 1.12984C111.468 1.12984 112.167 1.79543 112.167 2.61764V16.9364ZM88.1273 16.2987C88.474 17.037 88.1329 17.9096 87.3666 18.2564C86.5947 18.6032 85.6718 18.2955 85.2971 17.5684L85.2859 17.5404L81.7957 10.4762H81.1525C80.3079 10.4538 79.6311 9.79378 79.6311 8.98276C79.6311 8.17174 80.3079 7.51733 81.1525 7.49496V7.48936H83.5743C84.5364 7.48936 85.3306 6.73987 85.3306 5.81698C85.3306 4.89409 84.5364 4.13901 83.5743 4.13901H81.1525C80.3079 4.11663 79.6311 3.45663 79.6311 2.64561C79.6311 1.83459 80.3079 1.17458 81.1525 1.1578V1.15221H83.5743C86.2591 1.15221 88.4573 3.24968 88.4573 5.81698C88.4573 7.85852 87.0589 9.60921 85.1293 10.2301L88.1105 16.2708L88.1273 16.2987ZM96.0361 21.0138C96.0473 20.3762 96.5954 19.8616 97.2666 19.8616C97.9434 19.8616 98.4916 20.3762 98.5083 21.0138V25.7178C98.5139 26.2044 98.1951 26.6239 97.7532 26.8029H97.7477L97.7253 26.814H97.7197L97.6917 26.8252L97.6637 26.8308L97.6358 26.842C97.5183 26.8756 97.3953 26.8979 97.2666 26.8979H87.7525C87.0869 26.8812 86.5444 26.361 86.5444 25.7178C86.5444 25.0745 87.0869 24.5488 87.7525 24.5376H96.0305V21.0138H96.0361ZM65.3068 21.0138C65.2956 20.3762 64.7475 19.8616 64.0763 19.8616C63.3995 19.8616 62.8514 20.3762 62.8402 21.0138V25.7178C62.829 26.1932 63.131 26.6071 63.5617 26.7917H63.5673L63.5897 26.8029H63.5953L63.6232 26.814L63.6456 26.8252H63.6512L63.6792 26.8308C63.8022 26.8756 63.9364 26.8979 64.0763 26.8979H73.5904C74.2616 26.8812 74.7985 26.361 74.7985 25.7178C74.7985 25.0745 74.2616 24.5488 73.5904 24.5376H65.3124V21.0138H65.3068ZM114.695 4.13901H117.117C118.051 4.13901 118.817 4.83816 118.873 5.7163V5.81698V13.7258C118.873 14.6487 118.079 15.4038 117.117 15.4038H114.695C113.856 15.4262 113.179 16.0862 113.179 16.8916C113.179 17.7026 113.856 18.3626 114.695 18.385H117.117C119.763 18.385 121.938 16.3435 122 13.8321V13.793V5.57088V5.5485C122 5.42545 121.983 5.3024 121.955 5.19054C121.636 2.91968 119.578 1.15221 117.117 1.15221H114.695V1.1578C113.856 1.18018 113.179 1.83459 113.179 2.64561C113.179 3.45663 113.856 4.11663 114.695 4.13901ZM95.4824 1.27526C95.6893 1.18018 95.9131 1.12984 96.1592 1.12984C97.0205 1.12984 97.7197 1.79543 97.7197 2.61764C97.7197 3.27205 97.289 3.82578 96.6793 4.02714C95.6054 4.56409 94.8727 5.638 94.8727 6.86851V12.6911C94.8727 13.9328 95.6278 15.0235 96.7241 15.5548C97.3058 15.7674 97.7197 16.2148 97.7197 16.9475C97.7197 17.6747 96.7129 18.4354 96.1592 18.4354C95.6054 18.4354 95.6893 18.385 95.4824 18.2899V18.2955C93.2786 17.2999 91.7405 15.1577 91.7405 12.6911V6.86851C91.7405 4.40189 93.2786 2.25967 95.4824 1.26407V1.27526ZM101.171 18.206C103.274 17.1769 104.722 15.085 104.722 12.6911V6.86851C104.722 4.46901 103.268 2.37154 101.16 1.34797L101.154 1.35357C100.919 1.20814 100.634 1.12984 100.332 1.12984C99.4704 1.12984 98.7656 1.79543 98.7656 2.61764C98.7656 3.21053 99.1292 3.71951 99.6494 3.96002H99.6438C100.796 4.4746 101.596 5.58766 101.596 6.86851V12.6911C101.596 13.9719 100.79 15.085 99.6438 15.5996L99.6494 15.6052C99.1292 15.8457 98.7656 16.2372 98.7656 16.9475C98.7656 17.6523 99.7444 18.4354 100.332 18.4354C100.919 18.4354 100.93 18.3515 101.171 18.206ZM84.6874 29.7561H77.7518V28.2907C78.3391 27.8432 78.8648 27.4237 79.3347 27.0322C79.7989 26.6407 80.2128 26.2659 80.5652 25.9079C81.0294 25.4437 81.365 25.0354 81.5664 24.6886C81.7789 24.3362 81.8796 23.9783 81.8796 23.6035C81.8796 23.184 81.751 22.8652 81.4881 22.6415C81.2252 22.4177 80.856 22.3059 80.3862 22.3059C80.1513 22.3059 79.922 22.3339 79.7094 22.3898C79.4913 22.4457 79.2787 22.5184 79.055 22.6079C78.8425 22.703 78.6579 22.7981 78.5069 22.8932C78.3559 22.9883 78.2384 23.061 78.1601 23.1113H77.9811V21.1425C78.244 21.025 78.6635 20.8964 79.2284 20.7733C79.7933 20.6447 80.3415 20.5832 80.8616 20.5832C81.9803 20.5832 82.8305 20.8181 83.4066 21.2935C83.9883 21.7689 84.2735 22.4401 84.2735 23.3015C84.2735 23.8328 84.1449 24.353 83.882 24.8676C83.6191 25.3766 83.1828 25.9191 82.5788 26.5064C82.1984 26.8644 81.8293 27.1832 81.4657 27.4629C81.1077 27.7425 80.8448 27.9439 80.6882 28.0613H84.6874V29.7561ZM3.43424 16.9364C3.41746 17.7474 2.7239 18.3962 1.87373 18.3962C1.01796 18.3962 0.324397 17.7474 0.307617 16.9364V2.61764C0.307617 1.79543 1.01237 1.12984 1.87373 1.12984C2.73509 1.12984 3.43424 1.79543 3.43424 2.61764V2.64561V7.90886L11.2704 1.50458L11.2872 1.4878C11.9416 0.950853 12.9316 1.02356 13.4909 1.64442C14.0558 2.27645 13.9775 3.21612 13.3231 3.75307L13.3007 3.76985L7.05867 8.87649L13.379 15.9184L13.3958 15.9352C13.9607 16.5616 13.8824 17.5013 13.228 18.0382C12.5736 18.5752 11.5836 18.5025 11.0243 17.876L11.0075 17.8593L4.68154 10.8229L3.43424 11.8409V16.9364Z" fill="#FEFEFE"/>
<path d="M19.2855 27.8432C18.9555 27.8432 18.6871 27.5804 18.6871 27.256C18.6871 26.9315 18.9555 26.6631 19.2855 26.6631C19.6211 26.6631 19.8896 26.9315 19.8896 27.256C19.8896 27.5804 19.6211 27.8432 19.2855 27.8432ZM13.8209 27.8432C13.4909 27.8432 13.2224 27.5804 13.2224 27.256C13.2224 26.9315 13.4909 26.6631 13.8209 26.6631C14.1509 26.6631 14.425 26.9315 14.425 27.256C14.425 27.5804 14.1509 27.8432 13.8209 27.8432ZM19.2855 26.4953C18.9555 26.4953 18.6871 26.2268 18.6871 25.9024C18.6871 25.578 18.9555 25.3151 19.2855 25.3151C19.6211 25.3151 19.8896 25.578 19.8896 25.9024C19.8896 26.2268 19.6211 26.4953 19.2855 26.4953ZM13.8209 26.4953C13.4909 26.4953 13.2224 26.2268 13.2224 25.9024C13.2224 25.578 13.4909 25.3151 13.8209 25.3151C14.1509 25.3151 14.425 25.578 14.425 25.9024C14.425 26.2268 14.1509 26.4953 13.8209 26.4953ZM19.2855 25.1585C18.9555 25.1585 18.6871 24.8956 18.6871 24.5656C18.6871 24.2412 18.9555 23.9783 19.2855 23.9783C19.6211 23.9783 19.8896 24.2412 19.8896 24.5656C19.8896 24.8956 19.6211 25.1585 19.2855 25.1585ZM13.8209 25.1585C13.4909 25.1585 13.2224 24.8956 13.2224 24.5656C13.2224 24.2412 13.4909 23.9783 13.8209 23.9783C14.1509 23.9783 14.425 24.2412 14.425 24.5656C14.425 24.8956 14.1509 25.1585 13.8209 25.1585ZM17.9208 23.8217C17.5908 23.8217 17.3223 23.5588 17.3223 23.2344C17.3223 22.91 17.5908 22.6415 17.9208 22.6415C18.2564 22.6415 18.5248 22.91 18.5248 23.2344C18.5248 23.5588 18.2564 23.8217 17.9208 23.8217ZM16.556 23.8217C16.226 23.8217 15.952 23.5588 15.952 23.2344C15.952 22.91 16.226 22.6415 16.556 22.6415C16.886 22.6415 17.1545 22.91 17.1545 23.2344C17.1545 23.5588 16.886 23.8217 16.556 23.8217ZM15.1913 23.8217C14.8557 23.8217 14.5872 23.5588 14.5872 23.2344C14.5872 22.91 14.8557 22.6415 15.1913 22.6415C15.5213 22.6415 15.7897 22.91 15.7897 23.2344C15.7897 23.5588 15.5213 23.8217 15.1913 23.8217ZM17.9208 29.18C17.5908 29.18 17.3223 28.9171 17.3223 28.5927C17.3223 28.2627 17.5908 27.9999 17.9208 27.9999C18.2564 27.9999 18.5248 28.2627 18.5248 28.5927C18.5248 28.9171 18.2564 29.18 17.9208 29.18ZM16.556 29.18C16.226 29.18 15.952 28.9171 15.952 28.5927C15.952 28.2627 16.226 27.9999 16.556 27.9999C16.886 27.9999 17.1545 28.2627 17.1545 28.5927C17.1545 28.9171 16.886 29.18 16.556 29.18ZM15.1913 29.18C14.8557 29.18 14.5872 28.9171 14.5872 28.5927C14.5872 28.2627 14.8557 27.9999 15.1913 27.9999C15.5213 27.9999 15.7897 28.2627 15.7897 28.5927C15.7897 28.9171 15.5213 29.18 15.1913 29.18ZM13.8209 29.18C13.4909 29.18 13.2224 28.9171 13.2224 28.5927C13.2224 28.2627 13.4909 27.9999 13.8209 27.9999C14.1509 27.9999 14.425 28.2627 14.425 28.5927C14.425 28.9171 14.1509 29.18 13.8209 29.18ZM13.8209 30.5112C13.4909 30.5112 13.2224 30.2483 13.2224 29.9239C13.2224 29.5995 13.4909 29.3366 13.8209 29.3366C14.1509 29.3366 14.425 29.5995 14.425 29.9239C14.425 30.2483 14.1509 30.5112 13.8209 30.5112ZM13.8209 31.848C13.4909 31.848 13.2224 31.5851 13.2224 31.2607C13.2224 30.9307 13.4909 30.6678 13.8209 30.6678C14.1509 30.6678 14.425 30.9307 14.425 31.2607C14.425 31.5851 14.1509 31.848 13.8209 31.848ZM21.9871 23.9783C21.6571 23.9783 21.383 24.2412 21.383 24.5712C21.383 24.8956 21.6571 25.1585 21.9871 25.1585C22.3171 25.1585 22.5855 24.8956 22.5855 24.5712C22.5855 24.2412 22.3171 23.9783 21.9871 23.9783ZM21.9871 25.3319C21.6571 25.3319 21.383 25.5948 21.383 25.9192C21.383 26.2436 21.6571 26.5065 21.9871 26.5065C22.3171 26.5065 22.5855 26.2436 22.5855 25.9192C22.5855 25.5948 22.3171 25.3319 21.9871 25.3319ZM21.9871 26.6687C21.6571 26.6687 21.383 26.9315 21.383 27.256C21.383 27.5804 21.6571 27.8488 21.9871 27.8488C22.3171 27.8488 22.5855 27.5804 22.5855 27.256C22.5855 26.9315 22.3171 26.6687 21.9871 26.6687ZM21.9871 27.9999C21.6571 27.9999 21.383 28.2627 21.383 28.5927C21.383 28.9171 21.6571 29.18 21.9871 29.18C22.3171 29.18 22.5855 28.9171 22.5855 28.5927C22.5855 28.2627 22.3171 27.9999 21.9871 27.9999ZM24.7222 22.6415C24.3866 22.6415 24.1181 22.91 24.1181 23.2344C24.1181 23.5588 24.3866 23.8217 24.7222 23.8217C25.0522 23.8217 25.3206 23.5588 25.3206 23.2344C25.3206 22.91 25.0522 22.6415 24.7222 22.6415ZM23.3518 22.6415C23.0218 22.6415 22.7533 22.91 22.7533 23.2344C22.7533 23.5588 23.0218 23.8217 23.3518 23.8217C23.6874 23.8217 23.9559 23.5588 23.9559 23.2344C23.9559 22.91 23.6874 22.6415 23.3518 22.6415ZM32.8771 23.9783C32.5471 23.9783 32.2731 24.2412 32.2731 24.5712C32.2731 24.8956 32.5471 25.1585 32.8771 25.1585C33.2071 25.1585 33.4756 24.8956 33.4756 24.5712C33.4756 24.2412 33.2071 23.9783 32.8771 23.9783ZM32.8771 25.3319C32.5471 25.3319 32.2731 25.5948 32.2731 25.9192C32.2731 26.2436 32.5471 26.5065 32.8771 26.5065C33.2071 26.5065 33.4756 26.2436 33.4756 25.9192C33.4756 25.5948 33.2071 25.3319 32.8771 25.3319ZM31.5124 25.3319C31.1768 25.3319 30.9083 25.5948 30.9083 25.9192C30.9083 26.2436 31.1768 26.5065 31.5124 26.5065C31.8424 26.5065 32.1109 26.2436 32.1109 25.9192C32.1109 25.5948 31.8424 25.3319 31.5124 25.3319ZM30.142 25.3319C29.812 25.3319 29.5436 25.5948 29.5436 25.9192C29.5436 26.2436 29.812 26.5065 30.142 26.5065C30.4776 26.5065 30.7461 26.2436 30.7461 25.9192C30.7461 25.5948 30.4776 25.3319 30.142 25.3319ZM28.7773 25.3319C28.4473 25.3319 28.1788 25.5948 28.1788 25.9192C28.1788 26.2436 28.4473 26.5065 28.7773 26.5065C29.1073 26.5065 29.3758 26.2436 29.3758 25.9192C29.3758 25.5948 29.1073 25.3319 28.7773 25.3319ZM32.8771 26.6687C32.5471 26.6687 32.2731 26.9315 32.2731 27.256C32.2731 27.5804 32.5471 27.8488 32.8771 27.8488C33.2071 27.8488 33.4756 27.5804 33.4756 27.256C33.4756 26.9315 33.2071 26.6687 32.8771 26.6687ZM27.4125 26.6687C27.0769 26.6687 26.8085 26.9315 26.8085 27.256C26.8085 27.5804 27.0769 27.8488 27.4125 27.8488C27.7425 27.8488 28.011 27.5804 28.011 27.256C28.011 26.9315 27.7425 26.6687 27.4125 26.6687ZM31.5124 27.9999C31.1768 27.9999 30.9083 28.2627 30.9083 28.5927C30.9083 28.9171 31.1768 29.18 31.5124 29.18C31.8424 29.18 32.1109 28.9171 32.1109 28.5927C32.1109 28.2627 31.8424 27.9999 31.5124 27.9999ZM30.142 27.9999C29.812 27.9999 29.5436 28.2627 29.5436 28.5927C29.5436 28.9171 29.812 29.18 30.142 29.18C30.4776 29.18 30.7461 28.9171 30.7461 28.5927C30.7461 28.2627 30.4776 27.9999 30.142 27.9999ZM28.7773 27.9999C28.4473 27.9999 28.1788 28.2627 28.1788 28.5927C28.1788 28.9171 28.4473 29.18 28.7773 29.18C29.1073 29.18 29.3758 28.9171 29.3758 28.5927C29.3758 28.2627 29.1073 27.9999 28.7773 27.9999ZM31.5124 22.6415C31.1768 22.6415 30.9083 22.91 30.9083 23.2344C30.9083 23.5588 31.1768 23.8217 31.5124 23.8217C31.8424 23.8217 32.1109 23.5588 32.1109 23.2344C32.1109 22.91 31.8424 22.6415 31.5124 22.6415ZM30.142 22.6415C29.812 22.6415 29.5436 22.91 29.5436 23.2344C29.5436 23.5588 29.812 23.8217 30.142 23.8217C30.4776 23.8217 30.7461 23.5588 30.7461 23.2344C30.7461 22.91 30.4776 22.6415 30.142 22.6415ZM28.7773 22.6415C28.4473 22.6415 28.1788 22.91 28.1788 23.2344C28.1788 23.5588 28.4473 23.8217 28.7773 23.8217C29.1073 23.8217 29.3758 23.5588 29.3758 23.2344C29.3758 22.91 29.1073 22.6415 28.7773 22.6415ZM41.088 23.9783C40.758 23.9783 40.484 24.2412 40.484 24.5712C40.484 24.8956 40.758 25.1585 41.088 25.1585C41.418 25.1585 41.6865 24.8956 41.6865 24.5712C41.6865 24.2412 41.418 23.9783 41.088 23.9783ZM35.6234 23.9783C35.2878 23.9783 35.0193 24.2412 35.0193 24.5712C35.0193 24.8956 35.2878 25.1585 35.6234 25.1585C35.9534 25.1585 36.2219 24.8956 36.2219 24.5712C36.2219 24.2412 35.9534 23.9783 35.6234 23.9783ZM41.088 25.3319C40.758 25.3319 40.484 25.5948 40.484 25.9192C40.484 26.2436 40.758 26.5065 41.088 26.5065C41.418 26.5065 41.6865 26.2436 41.6865 25.9192C41.6865 25.5948 41.418 25.3319 41.088 25.3319ZM35.6234 25.3319C35.2878 25.3319 35.0193 25.5948 35.0193 25.9192C35.0193 26.2436 35.2878 26.5065 35.6234 26.5065C35.9534 26.5065 36.2219 26.2436 36.2219 25.9192C36.2219 25.5948 35.9534 25.3319 35.6234 25.3319ZM41.088 26.6687C40.758 26.6687 40.484 26.9315 40.484 27.256C40.484 27.5804 40.758 27.8488 41.088 27.8488C41.418 27.8488 41.6865 27.5804 41.6865 27.256C41.6865 26.9315 41.418 26.6687 41.088 26.6687ZM35.6234 26.6687C35.2878 26.6687 35.0193 26.9315 35.0193 27.256C35.0193 27.5804 35.2878 27.8488 35.6234 27.8488C35.9534 27.8488 36.2219 27.5804 36.2219 27.256C36.2219 26.9315 35.9534 26.6687 35.6234 26.6687ZM41.088 27.9999C40.758 27.9999 40.484 28.2627 40.484 28.5927C40.484 28.9171 40.758 29.18 41.088 29.18C41.418 29.18 41.6865 28.9171 41.6865 28.5927C41.6865 28.2627 41.418 27.9999 41.088 27.9999ZM35.6234 27.9999C35.2878 27.9999 35.0193 28.2627 35.0193 28.5927C35.0193 28.9171 35.2878 29.18 35.6234 29.18C35.9534 29.18 36.2219 28.9171 36.2219 28.5927C36.2219 28.2627 35.9534 27.9999 35.6234 27.9999ZM39.7233 22.6415C39.3877 22.6415 39.1192 22.91 39.1192 23.2344C39.1192 23.5588 39.3877 23.8217 39.7233 23.8217C40.0533 23.8217 40.3217 23.5588 40.3217 23.2344C40.3217 22.91 40.0533 22.6415 39.7233 22.6415ZM38.3529 22.6415C38.0229 22.6415 37.7544 22.91 37.7544 23.2344C37.7544 23.5588 38.0229 23.8217 38.3529 23.8217C38.6885 23.8217 38.957 23.5588 38.957 23.2344C38.957 22.91 38.6885 22.6415 38.3529 22.6415ZM36.9882 22.6415C36.6526 22.6415 36.3841 22.91 36.3841 23.2344C36.3841 23.5588 36.6526 23.8217 36.9882 23.8217C37.3182 23.8217 37.5866 23.5588 37.5866 23.2344C37.5866 22.91 37.3182 22.6415 36.9882 22.6415ZM35.6234 22.6415C35.2878 22.6415 35.0193 22.91 35.0193 23.2344C35.0193 23.5588 35.2878 23.8217 35.6234 23.8217C35.9534 23.8217 36.2219 23.5588 36.2219 23.2344C36.2219 22.91 35.9534 22.6415 35.6234 22.6415ZM49.2933 23.9783C48.9577 23.9783 48.6893 24.2412 48.6893 24.5712C48.6893 24.8956 48.9577 25.1585 49.2933 25.1585C49.6233 25.1585 49.8918 24.8956 49.8918 24.5712C49.8918 24.2412 49.6233 23.9783 49.2933 23.9783ZM49.2933 25.3319C48.9577 25.3319 48.6893 25.5948 48.6893 25.9192C48.6893 26.2436 48.9577 26.5065 49.2933 26.5065C49.6233 26.5065 49.8918 26.2436 49.8918 25.9192C49.8918 25.5948 49.6233 25.3319 49.2933 25.3319ZM47.923 25.3319C47.593 25.3319 47.3245 25.5948 47.3245 25.9192C47.3245 26.2436 47.593 26.5065 47.923 26.5065C48.2586 26.5065 48.527 26.2436 48.527 25.9192C48.527 25.5948 48.2586 25.3319 47.923 25.3319ZM46.5582 25.3319C46.2282 25.3319 45.9597 25.5948 45.9597 25.9192C45.9597 26.2436 46.2282 26.5065 46.5582 26.5065C46.8882 26.5065 47.1623 26.2436 47.1623 25.9192C47.1623 25.5948 46.8882 25.3319 46.5582 25.3319ZM45.1935 25.3319C44.8579 25.3319 44.5894 25.5948 44.5894 25.9192C44.5894 26.2436 44.8579 26.5065 45.1935 26.5065C45.5235 26.5065 45.7919 26.2436 45.7919 25.9192C45.7919 25.5948 45.5235 25.3319 45.1935 25.3319ZM49.2933 26.6687C48.9577 26.6687 48.6893 26.9315 48.6893 27.256C48.6893 27.5804 48.9577 27.8488 49.2933 27.8488C49.6233 27.8488 49.8918 27.5804 49.8918 27.256C49.8918 26.9315 49.6233 26.6687 49.2933 26.6687ZM43.8231 26.6687C43.4931 26.6687 43.2246 26.9315 43.2246 27.256C43.2246 27.5804 43.4931 27.8488 43.8231 27.8488C44.1587 27.8488 44.4272 27.5804 44.4272 27.256C44.4272 26.9315 44.1587 26.6687 43.8231 26.6687ZM47.923 27.9999C47.593 27.9999 47.3245 28.2627 47.3245 28.5927C47.3245 28.9171 47.593 29.18 47.923 29.18C48.2586 29.18 48.527 28.9171 48.527 28.5927C48.527 28.2627 48.2586 27.9999 47.923 27.9999ZM46.5582 27.9999C46.2282 27.9999 45.9597 28.2627 45.9597 28.5927C45.9597 28.9171 46.2282 29.18 46.5582 29.18C46.8882 29.18 47.1623 28.9171 47.1623 28.5927C47.1623 28.2627 46.8882 27.9999 46.5582 27.9999ZM45.1935 27.9999C44.8579 27.9999 44.5894 28.2627 44.5894 28.5927C44.5894 28.9171 44.8579 29.18 45.1935 29.18C45.5235 29.18 45.7919 28.9171 45.7919 28.5927C45.7919 28.2627 45.5235 27.9999 45.1935 27.9999ZM47.923 22.6415C47.593 22.6415 47.3245 22.91 47.3245 23.2344C47.3245 23.5588 47.593 23.8217 47.923 23.8217C48.2586 23.8217 48.527 23.5588 48.527 23.2344C48.527 22.91 48.2586 22.6415 47.923 22.6415ZM46.5582 22.6415C46.2282 22.6415 45.9597 22.91 45.9597 23.2344C45.9597 23.5588 46.2282 23.8217 46.5582 23.8217C46.8882 23.8217 47.1623 23.5588 47.1623 23.2344C47.1623 22.91 46.8882 22.6415 46.5582 22.6415ZM45.1935 22.6415C44.8579 22.6415 44.5894 22.91 44.5894 23.2344C44.5894 23.5588 44.8579 23.8217 45.1935 23.8217C45.5235 23.8217 45.7919 23.5588 45.7919 23.2344C45.7919 22.91 45.5235 22.6415 45.1935 22.6415ZM4.29002 21.8752C1.91849 21.8752 0 23.7602 0 26.087C0 28.4082 1.91849 30.2931 4.29002 30.2931C6.66156 30.2931 8.58005 28.4082 8.58005 26.087C8.58005 23.7602 6.66156 21.8752 4.29002 21.8752Z" fill="#FEFEFE"/>
</svg>
